<mxfile host="app.diagrams.net" agent="Mozilla/5.0 (X11; Ubuntu; Linux x86_64; rv:132.0) Gecko/20100101 Firefox/132.0" version="26.0.9">
  <diagram name="Page-1" id="NPgciSYdd91nUFY94TB7">
    <mxGraphModel dx="1364" dy="795" grid="1" gridSize="10" guides="1" tooltips="1" connect="1" arrows="1" fold="1" page="1" pageScale="1" pageWidth="850" pageHeight="1100" math="0" shadow="0">
      <root>
        <mxCell id="0" />
        <mxCell id="1" parent="0" />
        <mxCell id="efSyjOx1iE63Psifgei4-18" style="edgeStyle=orthogonalEdgeStyle;rounded=0;orthogonalLoop=1;jettySize=auto;html=1;exitX=0.5;exitY=1;exitDx=0;exitDy=0;" edge="1" parent="1" source="efSyjOx1iE63Psifgei4-1" target="efSyjOx1iE63Psifgei4-2">
          <mxGeometry relative="1" as="geometry" />
        </mxCell>
        <mxCell id="efSyjOx1iE63Psifgei4-1" value="start" style="ellipse;whiteSpace=wrap;html=1;" vertex="1" parent="1">
          <mxGeometry x="360" width="120" height="80" as="geometry" />
        </mxCell>
        <mxCell id="efSyjOx1iE63Psifgei4-16" value="" style="edgeStyle=orthogonalEdgeStyle;rounded=0;orthogonalLoop=1;jettySize=auto;html=1;" edge="1" parent="1" source="efSyjOx1iE63Psifgei4-2" target="efSyjOx1iE63Psifgei4-15">
          <mxGeometry relative="1" as="geometry" />
        </mxCell>
        <mxCell id="efSyjOx1iE63Psifgei4-2" value="read x" style="shape=parallelogram;perimeter=parallelogramPerimeter;whiteSpace=wrap;html=1;fixedSize=1;" vertex="1" parent="1">
          <mxGeometry x="360" y="130" width="120" height="60" as="geometry" />
        </mxCell>
        <mxCell id="efSyjOx1iE63Psifgei4-7" value="" style="edgeStyle=orthogonalEdgeStyle;rounded=0;orthogonalLoop=1;jettySize=auto;html=1;" edge="1" parent="1" source="efSyjOx1iE63Psifgei4-4" target="efSyjOx1iE63Psifgei4-6">
          <mxGeometry relative="1" as="geometry" />
        </mxCell>
        <mxCell id="efSyjOx1iE63Psifgei4-4" value="count = 0" style="whiteSpace=wrap;html=1;" vertex="1" parent="1">
          <mxGeometry x="360" y="380" width="120" height="60" as="geometry" />
        </mxCell>
        <mxCell id="efSyjOx1iE63Psifgei4-11" value="" style="edgeStyle=orthogonalEdgeStyle;rounded=0;orthogonalLoop=1;jettySize=auto;html=1;" edge="1" parent="1" source="efSyjOx1iE63Psifgei4-6" target="efSyjOx1iE63Psifgei4-10">
          <mxGeometry relative="1" as="geometry" />
        </mxCell>
        <mxCell id="efSyjOx1iE63Psifgei4-12" value="FALSE" style="edgeLabel;html=1;align=center;verticalAlign=middle;resizable=0;points=[];" vertex="1" connectable="0" parent="efSyjOx1iE63Psifgei4-11">
          <mxGeometry x="-0.2" y="-1" relative="1" as="geometry">
            <mxPoint as="offset" />
          </mxGeometry>
        </mxCell>
        <mxCell id="efSyjOx1iE63Psifgei4-14" value="" style="edgeStyle=orthogonalEdgeStyle;rounded=0;orthogonalLoop=1;jettySize=auto;html=1;" edge="1" parent="1" source="efSyjOx1iE63Psifgei4-6" target="efSyjOx1iE63Psifgei4-13">
          <mxGeometry relative="1" as="geometry" />
        </mxCell>
        <mxCell id="efSyjOx1iE63Psifgei4-23" value="TRUE" style="edgeLabel;html=1;align=center;verticalAlign=middle;resizable=0;points=[];" vertex="1" connectable="0" parent="efSyjOx1iE63Psifgei4-14">
          <mxGeometry x="-0.225" y="3" relative="1" as="geometry">
            <mxPoint as="offset" />
          </mxGeometry>
        </mxCell>
        <mxCell id="efSyjOx1iE63Psifgei4-6" value="x &amp;gt; 0" style="rhombus;whiteSpace=wrap;html=1;" vertex="1" parent="1">
          <mxGeometry x="380" y="510" width="80" height="80" as="geometry" />
        </mxCell>
        <mxCell id="efSyjOx1iE63Psifgei4-45" value="" style="edgeStyle=orthogonalEdgeStyle;rounded=0;orthogonalLoop=1;jettySize=auto;html=1;" edge="1" parent="1" source="efSyjOx1iE63Psifgei4-10" target="efSyjOx1iE63Psifgei4-44">
          <mxGeometry relative="1" as="geometry" />
        </mxCell>
        <mxCell id="efSyjOx1iE63Psifgei4-10" value="write &quot;errore numero maggiore di zero&quot;" style="shape=parallelogram;perimeter=parallelogramPerimeter;whiteSpace=wrap;html=1;fixedSize=1;" vertex="1" parent="1">
          <mxGeometry x="170" y="520" width="150" height="60" as="geometry" />
        </mxCell>
        <mxCell id="efSyjOx1iE63Psifgei4-22" value="" style="edgeStyle=orthogonalEdgeStyle;rounded=0;orthogonalLoop=1;jettySize=auto;html=1;" edge="1" parent="1" source="efSyjOx1iE63Psifgei4-13" target="efSyjOx1iE63Psifgei4-21">
          <mxGeometry relative="1" as="geometry" />
        </mxCell>
        <mxCell id="efSyjOx1iE63Psifgei4-24" value="FALSE" style="edgeLabel;html=1;align=center;verticalAlign=middle;resizable=0;points=[];" vertex="1" connectable="0" parent="efSyjOx1iE63Psifgei4-22">
          <mxGeometry x="0.0571" y="-2" relative="1" as="geometry">
            <mxPoint as="offset" />
          </mxGeometry>
        </mxCell>
        <mxCell id="efSyjOx1iE63Psifgei4-27" value="" style="edgeStyle=orthogonalEdgeStyle;rounded=0;orthogonalLoop=1;jettySize=auto;html=1;" edge="1" parent="1" source="efSyjOx1iE63Psifgei4-13" target="efSyjOx1iE63Psifgei4-26">
          <mxGeometry relative="1" as="geometry" />
        </mxCell>
        <mxCell id="efSyjOx1iE63Psifgei4-32" value="TRUE" style="edgeLabel;html=1;align=center;verticalAlign=middle;resizable=0;points=[];" vertex="1" connectable="0" parent="efSyjOx1iE63Psifgei4-27">
          <mxGeometry x="-0.3333" y="-3" relative="1" as="geometry">
            <mxPoint as="offset" />
          </mxGeometry>
        </mxCell>
        <mxCell id="efSyjOx1iE63Psifgei4-13" value="count &amp;lt; 10" style="rhombus;whiteSpace=wrap;html=1;" vertex="1" parent="1">
          <mxGeometry x="380" y="670" width="80" height="80" as="geometry" />
        </mxCell>
        <mxCell id="efSyjOx1iE63Psifgei4-17" style="edgeStyle=orthogonalEdgeStyle;rounded=0;orthogonalLoop=1;jettySize=auto;html=1;exitX=0.5;exitY=1;exitDx=0;exitDy=0;entryX=0.5;entryY=0;entryDx=0;entryDy=0;" edge="1" parent="1" source="efSyjOx1iE63Psifgei4-15" target="efSyjOx1iE63Psifgei4-4">
          <mxGeometry relative="1" as="geometry" />
        </mxCell>
        <mxCell id="efSyjOx1iE63Psifgei4-15" value="&lt;div&gt;sum1 = 0&lt;/div&gt;&lt;div&gt;sum2 = 0&lt;br&gt;&lt;/div&gt;" style="whiteSpace=wrap;html=1;" vertex="1" parent="1">
          <mxGeometry x="360" y="250" width="120" height="60" as="geometry" />
        </mxCell>
        <mxCell id="efSyjOx1iE63Psifgei4-46" style="edgeStyle=orthogonalEdgeStyle;rounded=0;orthogonalLoop=1;jettySize=auto;html=1;exitX=0;exitY=0.5;exitDx=0;exitDy=0;entryX=0.5;entryY=1;entryDx=0;entryDy=0;" edge="1" parent="1" source="efSyjOx1iE63Psifgei4-21" target="efSyjOx1iE63Psifgei4-44">
          <mxGeometry relative="1" as="geometry" />
        </mxCell>
        <mxCell id="efSyjOx1iE63Psifgei4-21" value="Write sum1, sum2" style="shape=parallelogram;perimeter=parallelogramPerimeter;whiteSpace=wrap;html=1;fixedSize=1;" vertex="1" parent="1">
          <mxGeometry x="186" y="680" width="120" height="60" as="geometry" />
        </mxCell>
        <mxCell id="efSyjOx1iE63Psifgei4-49" value="" style="edgeStyle=orthogonalEdgeStyle;rounded=0;orthogonalLoop=1;jettySize=auto;html=1;" edge="1" parent="1" source="efSyjOx1iE63Psifgei4-26" target="efSyjOx1iE63Psifgei4-48">
          <mxGeometry relative="1" as="geometry" />
        </mxCell>
        <mxCell id="efSyjOx1iE63Psifgei4-26" value="read n" style="shape=parallelogram;perimeter=parallelogramPerimeter;whiteSpace=wrap;html=1;fixedSize=1;" vertex="1" parent="1">
          <mxGeometry x="360" y="780" width="120" height="60" as="geometry" />
        </mxCell>
        <mxCell id="efSyjOx1iE63Psifgei4-31" value="" style="edgeStyle=orthogonalEdgeStyle;rounded=0;orthogonalLoop=1;jettySize=auto;html=1;" edge="1" parent="1" source="efSyjOx1iE63Psifgei4-28" target="efSyjOx1iE63Psifgei4-30">
          <mxGeometry relative="1" as="geometry" />
        </mxCell>
        <mxCell id="efSyjOx1iE63Psifgei4-37" value="TRUE" style="edgeLabel;html=1;align=center;verticalAlign=middle;resizable=0;points=[];" vertex="1" connectable="0" parent="efSyjOx1iE63Psifgei4-31">
          <mxGeometry x="0.025" y="1" relative="1" as="geometry">
            <mxPoint as="offset" />
          </mxGeometry>
        </mxCell>
        <mxCell id="efSyjOx1iE63Psifgei4-34" value="" style="edgeStyle=orthogonalEdgeStyle;rounded=0;orthogonalLoop=1;jettySize=auto;html=1;" edge="1" parent="1" source="efSyjOx1iE63Psifgei4-28" target="efSyjOx1iE63Psifgei4-33">
          <mxGeometry relative="1" as="geometry" />
        </mxCell>
        <mxCell id="efSyjOx1iE63Psifgei4-38" value="FALSE" style="edgeLabel;html=1;align=center;verticalAlign=middle;resizable=0;points=[];" vertex="1" connectable="0" parent="efSyjOx1iE63Psifgei4-34">
          <mxGeometry x="-0.6" y="2" relative="1" as="geometry">
            <mxPoint as="offset" />
          </mxGeometry>
        </mxCell>
        <mxCell id="efSyjOx1iE63Psifgei4-28" value="&lt;div&gt;n % 2 == 0&lt;/div&gt;&lt;div&gt;and&lt;/div&gt;&lt;div&gt;n &amp;gt; (x/2)&lt;br&gt;&lt;/div&gt;" style="rhombus;whiteSpace=wrap;html=1;" vertex="1" parent="1">
          <mxGeometry x="360" y="970" width="120" height="80" as="geometry" />
        </mxCell>
        <mxCell id="efSyjOx1iE63Psifgei4-41" style="edgeStyle=orthogonalEdgeStyle;rounded=0;orthogonalLoop=1;jettySize=auto;html=1;exitX=1;exitY=0.5;exitDx=0;exitDy=0;" edge="1" parent="1" source="efSyjOx1iE63Psifgei4-30">
          <mxGeometry relative="1" as="geometry">
            <mxPoint x="700" y="1010" as="targetPoint" />
          </mxGeometry>
        </mxCell>
        <mxCell id="efSyjOx1iE63Psifgei4-30" value="sum1 = sum1 + n" style="whiteSpace=wrap;html=1;" vertex="1" parent="1">
          <mxGeometry x="560" y="980" width="120" height="60" as="geometry" />
        </mxCell>
        <mxCell id="efSyjOx1iE63Psifgei4-36" value="" style="edgeStyle=orthogonalEdgeStyle;rounded=0;orthogonalLoop=1;jettySize=auto;html=1;" edge="1" parent="1" source="efSyjOx1iE63Psifgei4-33" target="efSyjOx1iE63Psifgei4-35">
          <mxGeometry relative="1" as="geometry" />
        </mxCell>
        <mxCell id="efSyjOx1iE63Psifgei4-39" value="TRUE" style="edgeLabel;html=1;align=center;verticalAlign=middle;resizable=0;points=[];" vertex="1" connectable="0" parent="efSyjOx1iE63Psifgei4-36">
          <mxGeometry x="0.0891" relative="1" as="geometry">
            <mxPoint as="offset" />
          </mxGeometry>
        </mxCell>
        <mxCell id="efSyjOx1iE63Psifgei4-42" style="edgeStyle=orthogonalEdgeStyle;rounded=0;orthogonalLoop=1;jettySize=auto;html=1;exitX=0.5;exitY=1;exitDx=0;exitDy=0;" edge="1" parent="1" source="efSyjOx1iE63Psifgei4-33">
          <mxGeometry relative="1" as="geometry">
            <mxPoint x="720" y="710" as="targetPoint" />
          </mxGeometry>
        </mxCell>
        <mxCell id="efSyjOx1iE63Psifgei4-52" value="FALSE" style="edgeLabel;html=1;align=center;verticalAlign=middle;resizable=0;points=[];" vertex="1" connectable="0" parent="efSyjOx1iE63Psifgei4-42">
          <mxGeometry x="-0.5645" y="4" relative="1" as="geometry">
            <mxPoint as="offset" />
          </mxGeometry>
        </mxCell>
        <mxCell id="efSyjOx1iE63Psifgei4-33" value="n &amp;lt; x" style="rhombus;whiteSpace=wrap;html=1;" vertex="1" parent="1">
          <mxGeometry x="380" y="1130" width="80" height="80" as="geometry" />
        </mxCell>
        <mxCell id="efSyjOx1iE63Psifgei4-40" style="edgeStyle=orthogonalEdgeStyle;rounded=0;orthogonalLoop=1;jettySize=auto;html=1;exitX=1;exitY=0.5;exitDx=0;exitDy=0;entryX=1;entryY=0.5;entryDx=0;entryDy=0;" edge="1" parent="1" source="efSyjOx1iE63Psifgei4-35" target="efSyjOx1iE63Psifgei4-13">
          <mxGeometry relative="1" as="geometry" />
        </mxCell>
        <mxCell id="efSyjOx1iE63Psifgei4-35" value="sum2 = sum2 + n" style="whiteSpace=wrap;html=1;" vertex="1" parent="1">
          <mxGeometry x="561" y="1140" width="120" height="60" as="geometry" />
        </mxCell>
        <mxCell id="efSyjOx1iE63Psifgei4-43" value="" style="endArrow=classic;html=1;rounded=0;entryX=1;entryY=0.5;entryDx=0;entryDy=0;" edge="1" parent="1" target="efSyjOx1iE63Psifgei4-13">
          <mxGeometry width="50" height="50" relative="1" as="geometry">
            <mxPoint x="720" y="710" as="sourcePoint" />
            <mxPoint x="770" y="660" as="targetPoint" />
          </mxGeometry>
        </mxCell>
        <mxCell id="efSyjOx1iE63Psifgei4-44" value="end" style="ellipse;whiteSpace=wrap;html=1;" vertex="1" parent="1">
          <mxGeometry x="40" y="600" width="80" height="80" as="geometry" />
        </mxCell>
        <mxCell id="efSyjOx1iE63Psifgei4-50" style="edgeStyle=orthogonalEdgeStyle;rounded=0;orthogonalLoop=1;jettySize=auto;html=1;exitX=0.5;exitY=1;exitDx=0;exitDy=0;entryX=0.5;entryY=0;entryDx=0;entryDy=0;" edge="1" parent="1" source="efSyjOx1iE63Psifgei4-48" target="efSyjOx1iE63Psifgei4-28">
          <mxGeometry relative="1" as="geometry" />
        </mxCell>
        <mxCell id="efSyjOx1iE63Psifgei4-48" value="count += 1" style="whiteSpace=wrap;html=1;" vertex="1" parent="1">
          <mxGeometry x="360" y="877" width="120" height="60" as="geometry" />
        </mxCell>
      </root>
    </mxGraphModel>
  </diagram>
</mxfile>
